Coordinates
version=1
nRows=22
nColumns=24
inDegrees=yes

Units are S.I. units (second, meters, Newtons, ...)
Angles are in degrees.

endheader
time	pelvis_tilt	pelvis_list	pelvis_rotation	pelvis_tx	pelvis_ty	pelvis_tz	hip_flexion_r	hip_adduction_r	hip_rotation_r	knee_angle_r	ankle_angle_r	subtalar_angle_r	mtp_angle_r	hip_flexion_l	hip_adduction_l	hip_rotation_l	knee_angle_l	ankle_angle_l	subtalar_angle_l	mtp_angle_l	lumbar_extension	lumbar_bending	lumbar_rotation
      6.67000000	     63.54288512	      3.07972216	     -1.69742610	      0.56090685	      1.05864455	     -0.31144194	      3.74585208	    -11.88236954	      5.58313589	    -60.85714089	    -19.03731493	     -2.12869478	      0.00000000	      4.22636035	     -7.14383942	      1.13296301	    -59.48514035	     -6.27335271	     24.54988440	      0.00000000	      0.00000000	      0.00000000	      0.00000000
      6.68000000	     63.52225165	      3.07584149	     -1.69442837	      0.56095525	      1.05856893	     -0.31146011	      3.78058741	    -11.87801914	      5.58085704	    -60.88080020	    -19.03338282	     -2.13024506	      0.00000000	      4.28161926	     -7.26765186	      1.19700559	    -60.67298586	     -6.44613533	     24.53806542	      0.00000000	      0.00000000	      0.00000000	      0.00000000
      6.69000000	     63.49676759	      3.07080427	     -1.69028170	      0.56100162	      1.05848297	     -0.31147046	      3.82078358	    -11.87336060	      5.57478374	    -60.90045010	    -19.03651065	     -2.13202401	      0.00000000	      4.34141436	     -7.39349474	      1.26437305	    -61.87002887	     -6.60262771	     24.53336041	      0.00000000	      0.00000000	      0.00000000	      0.00000000
      6.70000000	     63.46942160	      3.06353399	     -1.68448184	      0.56105332	      1.05840509	     -0.31147877	      3.86463335	    -11.86622863	      5.56477207	    -60.91689736	    -19.04454984	     -2.13412586	      0.00000000	      4.40562344	     -7.52178080	      1.33723394	    -63.07217216	     -6.74383254	     24.54183582	      0.00000000	      0.00000000	      0.00000000	      0.00000000
      6.71000000	     63.44322981	      3.05298725	     -1.67635569	      0.56111890	      1.05834051	     -0.31149128	      3.90860100	    -11.85481005	      5.55193121	    -60.93215987	    -19.05327435	     -2.13571415	      0.00000000	      4.47434339	     -7.65218899	      1.41674302	    -64.27362423	     -6.87210633	     24.56733418	      0.00000000	      0.00000000	      0.00000000	      0.00000000
      6.72000000	     63.41889555	      3.03813758	     -1.66524168	      0.56118401	      1.05827503	     -0.31150562	      3.94784641	    -11.83787009	      5.53796613	    -60.94865469	    -19.05766466	     -2.13515286	      0.00000000	      4.54664552	     -7.78385637	      1.50327353	    -65.46829117	     -6.98994344	     24.61095063	      0.00000000	      0.00000000	      0.00000000	      0.00000000
      6.73000000	     63.39608911	      3.01900934	     -1.65141166	      0.56123294	      1.05820281	     -0.31151508	      3.97875287	    -11.81522034	      5.52438236	    -60.96736483	    -19.05338145	     -2.13047529	      0.00000000	      4.62031544	     -7.91552603	      1.59683924	    -66.65089818	     -7.09895061	     24.67114929	      0.00000000	      0.00000000	      0.00000000	      0.00000000
      6.74000000	     63.37567591	      2.99747342	     -1.63665856	      0.56127636	      1.05813451	     -0.31151533	      4.00139990	    -11.78844043	      5.51220472	    -60.98676474	    -19.03784776	     -2.12005551	      0.00000000	      4.69212361	     -8.04517928	      1.69705967	    -67.81722256	     -7.19928081	     24.74443244	      0.00000000	      0.00000000	      0.00000000	      0.00000000
      6.75000000	     63.35957479	      2.97664844	     -1.62419367	      0.56133413	      1.05807751	     -0.31151061	      4.01870165	    -11.76175943	      5.50264538	    -61.00474160	    -19.01049207	     -2.10328434	      0.00000000	      4.75876819	     -8.16910552	      1.80234817	    -68.96312929	     -7.28968313	     24.82640078	      0.00000000	      0.00000000	      0.00000000	      0.00000000
      6.76000000	     63.34936145	      2.96007642	     -1.61769725	      0.56140593	      1.05802621	     -0.31151418	      4.03387071	    -11.74210897	      5.49802391	    -61.02186667	    -18.97214973	     -2.08101949	      0.00000000	      4.81777218	     -8.28124617	      1.90890111	    -70.08355070	     -7.36817601	     24.91293769	      0.00000000	      0.00000000	      0.00000000	      0.00000000
      6.77000000	     63.34596408	      2.95255933	     -1.62005132	      0.56147443	      1.05797300	     -0.31154083	      4.04938918	    -11.73742671	      5.50179145	    -61.04278324	    -18.92414033	     -2.05558852	      0.00000000	      4.86750351	     -8.37413809	      2.01070794	    -71.17259688	     -7.43307956	     25.00116817	      0.00000000	      0.00000000	      0.00000000	      0.00000000
      6.78000000	     63.35026390	      2.96164900	     -1.63277752	      0.56152718	      1.05791336	     -0.31158480	      4.06723392	    -11.75384931	      5.51740648	    -61.07477634	    -18.86769785	     -2.03025229	      0.00000000	      4.90700880	     -8.44165371	      2.10125930	    -72.22446311	     -7.48390035	     25.08989584	      0.00000000	      0.00000000	      0.00000000	      0.00000000
      6.79000000	     63.36318754	      2.99671132	     -1.65620532	      0.56156813	      1.05783311	     -0.31159121	      4.08885377	    -11.79336850	      5.54673471	    -61.12439165	    -18.80409685	     -2.00825297	      0.00000000	      4.93641682	     -8.48203758	      2.17627068	    -73.23428116	     -7.52157055	     25.17938971	      0.00000000	      0.00000000	      0.00000000	      0.00000000
      6.80000000	     63.38482899	      3.06369545	     -1.68935921	      0.56161648	      1.05770148	     -0.31146356	      4.11461303	    -11.85299876	      5.58879265	    -61.19366344	    -18.73528385	     -1.99177450	      0.00000000	      4.95772573	     -8.49894748	      2.23567655	    -74.19842113	     -7.54792594	     25.27063092	      0.00000000	      0.00000000	      0.00000000	      0.00000000
      6.81000000	     63.41303517	      3.15782331	     -1.72903790	      0.56168780	      1.05749918	     -0.31114680	      4.14343099	    -11.92554297	      5.63942268	    -61.27782036	    -18.66445687	     -1.98124347	      0.00000000	      4.97492822	     -8.49947055	      2.28351739	    -75.11440451	     -7.56482248	     25.36435966	      0.00000000	      0.00000000	      0.00000000	      0.00000000
      6.82000000	     63.44289963	      3.26143747	     -1.76963678	      0.56176851	      1.05727061	     -0.31073973	      4.17325211	    -12.00135622	      5.69212363	    -61.36596183	    -18.59604537	     -1.97530470	      0.00000000	      4.99302887	     -8.49135355	      2.32633542	    -75.98059930	     -7.57338845	     25.46024727	      0.00000000	      0.00000000	      0.00000000	      0.00000000
      6.83000000	     63.46811701	      3.35186734	     -1.80489077	      0.56182747	      1.05709755	     -0.31044019	      4.20207415	    -12.07041015	      5.73974344	    -61.44485402	    -18.53490606	     -1.97151488	      0.00000000	      5.01623214	     -8.48182737	      2.37120879	    -76.79570425	     -7.57369920	     25.55640714	      0.00000000	      0.00000000	      0.00000000	      0.00000000
      6.84000000	     63.48360426	      3.41363055	     -1.83037714	      0.56185464	      1.05700598	     -0.31033791	      4.22857169	    -12.12435825	      5.77636410	    -61.50414846	    -18.48505145	     -1.96743591	      0.00000000	      5.04643373	     -8.47758268	      2.42362053	    -77.55804208	     -7.56501556	     25.64943827	      0.00000000	      0.00000000	      0.00000000	      0.00000000
      6.85000000	     63.48789020	      3.44444569	     -1.84489759	      0.56186616	      1.05696202	     -0.31036442	      4.25188010	    -12.15834677	      5.79873716	    -61.54019340	    -18.44853440	     -1.96160716	      0.00000000	      5.08327560	     -8.48427771	      2.48541964	    -78.26480481	     -7.54654407	     25.73507150	      0.00000000	      0.00000000	      0.00000000	      0.00000000
      6.86000000	     63.48351106	      3.45185240	     -1.84966721	      0.56188032	      1.05693285	     -0.31041912	      4.27117382	    -12.17196613	      5.80688917	    -61.55635865	    -18.42500758	     -1.95397662	      0.00000000	      5.12501360	     -8.50481309	      2.55358979	    -78.91183073	     -7.51840758	     25.80925032	      0.00000000	      0.00000000	      0.00000000	      0.00000000
      6.87000000	     63.47528901	      3.44579891	     -1.84649625	      0.56190636	      1.05690219	     -0.31044891	      4.28567851	    -12.16898937	      5.80381248	    -61.56013232	    -18.41208896	     -1.94568390	      0.00000000	      5.16911872	     -8.53772641	      2.62097691	    -79.49425665	     -7.48236621	     25.86924381	      0.00000000	      0.00000000	      0.00000000	      0.00000000
      6.88000000	     63.46784769	      3.43392805	     -1.83732160	      0.56193891	      1.05686420	     -0.31044509	      4.29503469	    -12.15595096	      5.79434766	    -61.55917234	    -18.40629766	     -1.93839891	      0.00000000	      5.21257140	     -8.57790518	      2.67952888	    -80.00780388	     -7.44193440	     25.91434179	      0.00000000	      0.00000000	      0.00000000	      0.00000000
